# MagicaVoxel @ Ephtracy

# group
o 

# material
mtllib rifle_A.mtl
usemtl palette

# normals
vn -1 0 0
vn 1 0 0
vn 0 0 1
vn 0 0 -1
vn 0 -1 0
vn 0 1 0

# texcoords
vt 0.970703 0.5
vt 0.982422 0.5
vt 0.990234 0.5

# verts
v -1.5 1.9 0.0999999
v -1.5 1.9 -0.1
v -1.5 2 0.0999999
v -1.5 2 -0.1
v -1.3 2 0.0999999
v -1.3 2 -0.1
v -1.3 2.3 0.0999999
v -1.3 2.3 -0.1
v -1 2 0.0999999
v -1 2 -0.1
v -1 2.1 0.0999999
v -1 2.1 -0.1
v -0.9 2.1 0.0999999
v -0.9 2.1 -0.1
v -0.9 2.2 0.0999999
v -0.9 2.2 -0.1
v -0.3 1.3 0.0999999
v -0.3 1.3 -0.1
v -0.3 1.7 0.0999999
v -0.3 1.7 -0.1
v -0.2 1.7 0.0999999
v -0.2 1.7 -0.1
v -0.2 1.8 0.0999999
v -0.2 1.8 -0.1
v -0.1 1.8 0.0999999
v -0.1 1.8 -0.1
v -0.1 1.9 0.0999999
v -0.1 1.9 -0.1
v 0.1 2 0.0999999
v 0.1 2 -0.1
v 0.1 2.1 0.0999999
v 0.1 2.1 -0.1
v 0.4 1.6 0.0999999
v 0.4 1.6 -0.1
v 0.4 1.8 0.0999999
v 0.4 1.8 -0.1
v 0.5 1.3 0.0999999
v 0.5 1.3 -0.1
v 0.5 1.4 0.0999999
v 0.5 1.4 -0.1
v 0.6 1.4 0.0999999
v 0.6 1.4 -0.1
v 0.6 1.6 0.0999999
v 0.6 1.6 -0.1
v 0.7 1.7 0.0999999
v 0.7 1.7 -0.1
v 0.7 1.8 0.0999999
v 0.7 1.8 -0.1
v 0.7 2.1 0.0999999
v 0.7 2.1 -0.1
v 0.7 2.2 0.0999999
v 0.7 2.2 -0.1
v 1 1.6 0.0999999
v 1 1.6 -0.1
v 1 1.7 0.0999999
v 1 1.7 -0.1
v 1.1 1.5 0.0999999
v 1.1 1.5 -0.1
v 1.1 1.6 0.0999999
v 1.1 1.6 -0.1
v 1.3 1.4 0.0999999
v 1.3 1.4 -0.1
v 1.3 1.5 0.0999999
v 1.3 1.5 -0.1
v 1.4 1.3 0.0999999
v 1.4 1.3 -0.1
v 1.4 1.4 0.0999999
v 1.4 1.4 -0.1
v 1.6 1.4 0.0999999
v 1.6 1.4 -0.1
v 1.6 1.9 0.0999999
v 1.6 1.9 -0.1
v -1.2 2.1 0.0999999
v -1.2 2.1 -0.1
v -1.2 2.3 0.0999999
v -1.2 2.3 -0.1
v -1.1 2 0.0999999
v -1.1 2 -0.1
v -1.1 2.1 0.0999999
v -1.1 2.1 -0.1
v -0.8 2 0.0999999
v -0.8 2 -0.1
v -0.8 2.1 0.0999999
v -0.8 2.1 -0.1
v -0.1 1.3 0.0999999
v -0.1 1.3 -0.1
v -0.1 1.4 0.0999999
v -0.1 1.4 -0.1
v 0 1.4 0.0999999
v 0 1.4 -0.1
v 0 1.5 0.0999999
v 0 1.5 -0.1
v 0.1 1.5 0.0999999
v 0.1 1.5 -0.1
v 0.1 1.6 0.0999999
v 0.1 1.6 -0.1
v 0.2 1.6 0.0999999
v 0.2 1.6 -0.1
v 0.2 1.7 0.0999999
v 0.2 1.7 -0.1
v 0.3 1.7 0.0999999
v 0.3 1.7 -0.1
v 0.3 1.8 0.0999999
v 0.3 1.8 -0.1
v 0.5 1.7 0.0999999
v 0.5 1.7 -0.1
v 0.5 1.8 0.0999999
v 0.5 1.8 -0.1
v 0.5 2.1 0.0999999
v 0.5 2.1 -0.1
v 0.5 2.2 0.0999999
v 0.5 2.2 -0.1
v 0.8 1.3 0.0999999
v 0.8 1.3 -0.1
v 0.8 1.5 0.0999999
v 0.8 1.5 -0.1
v 0.8 2.1 0.0999999
v 0.8 2.1 -0.1
v 0.8 2.2 0.0999999
v 0.8 2.2 -0.1
v 0.9 1.5 0.0999999
v 0.9 1.5 -0.1
v 0.9 1.7 0.0999999
v 0.9 1.7 -0.1
v 0.9 2 0.0999999
v 0.9 2 -0.1
v 0.9 2.1 0.0999999
v 0.9 2.1 -0.1
v 1.1 1.7 0.0999999
v 1.1 1.7 -0.1
v 1.1 1.9 0.0999999
v 1.1 1.9 -0.1
v 1.2 1.6 0.0999999
v 1.2 1.6 -0.1
v 1.2 1.7 0.0999999
v 1.2 1.7 -0.1
v 1.4 1.5 0.0999999
v 1.4 1.5 -0.1
v 1.4 1.6 0.0999999
v 1.4 1.6 -0.1
v 1.5 1.4 0.0999999
v 1.5 1.4 -0.1
v 1.5 1.5 0.0999999
v 1.5 1.5 -0.1
v 1.7 1.3 0.0999999
v 1.7 1.3 -0.1
v 1.7 2 0.0999999
v 1.7 2 -0.1
v -1.5 1.9 0.0999999
v -1.5 2 0.0999999
v -1.3 2 0.0999999
v -1.3 2.3 0.0999999
v -1.2 2.1 0.0999999
v -1.2 2.3 0.0999999
v -1.1 2 0.0999999
v -1.1 2.1 0.0999999
v -1 2 0.0999999
v -1 2.1 0.0999999
v -0.9 2.1 0.0999999
v -0.9 2.2 0.0999999
v -0.8 2 0.0999999
v -0.8 2.1 0.0999999
v -0.6 1.9 0.0999999
v -0.6 2 0.0999999
v -0.6 2.1 0.0999999
v -0.6 2.2 0.0999999
v -0.3 1.3 0.0999999
v -0.3 1.7 0.0999999
v -0.2 1.4 0.0999999
v -0.2 1.7 0.0999999
v -0.2 1.8 0.0999999
v -0.2 1.9 0.0999999
v -0.2 2 0.0999999
v -0.2 2.1 0.0999999
v -0.2 2.2 0.0999999
v -0.1 1.3 0.0999999
v -0.1 1.4 0.0999999
v -0.1 1.5 0.0999999
v -0.1 1.7 0.0999999
v -0.1 1.8 0.0999999
v -0.1 1.9 0.0999999
v 0 1.4 0.0999999
v 0 1.5 0.0999999
v 0 1.6 0.0999999
v 0.1 1.5 0.0999999
v 0.1 1.6 0.0999999
v 0.1 1.8 0.0999999
v 0.1 2 0.0999999
v 0.1 2.1 0.0999999
v 0.2 1.6 0.0999999
v 0.2 1.7 0.0999999
v 0.2 2 0.0999999
v 0.2 2.1 0.0999999
v 0.3 1.7 0.0999999
v 0.3 1.8 0.0999999
v 0.4 1.6 0.0999999
v 0.4 1.8 0.0999999
v 0.5 1.3 0.0999999
v 0.5 1.4 0.0999999
v 0.5 1.7 0.0999999
v 0.5 1.8 0.0999999
v 0.5 2.1 0.0999999
v 0.5 2.2 0.0999999
v 0.6 1.4 0.0999999
v 0.6 1.6 0.0999999
v 0.7 1.7 0.0999999
v 0.7 1.8 0.0999999
v 0.7 2 0.0999999
v 0.7 2.1 0.0999999
v 0.7 2.2 0.0999999
v 0.8 1.3 0.0999999
v 0.8 1.5 0.0999999
v 0.8 2.1 0.0999999
v 0.8 2.2 0.0999999
v 0.9 1.5 0.0999999
v 0.9 1.7 0.0999999
v 0.9 2 0.0999999
v 0.9 2.1 0.0999999
v 1 1.6 0.0999999
v 1 1.7 0.0999999
v 1 2 0.0999999
v 1.1 1.5 0.0999999
v 1.1 1.6 0.0999999
v 1.1 1.7 0.0999999
v 1.1 1.9 0.0999999
v 1.2 1.6 0.0999999
v 1.2 1.7 0.0999999
v 1.3 1.4 0.0999999
v 1.3 1.5 0.0999999
v 1.4 1.3 0.0999999
v 1.4 1.4 0.0999999
v 1.4 1.5 0.0999999
v 1.4 1.6 0.0999999
v 1.5 1.4 0.0999999
v 1.5 1.5 0.0999999
v 1.6 1.4 0.0999999
v 1.6 1.9 0.0999999
v 1.7 1.3 0.0999999
v 1.7 2 0.0999999
v -1.5 1.9 -0.1
v -1.5 2 -0.1
v -1.3 2 -0.1
v -1.3 2.3 -0.1
v -1.2 2.1 -0.1
v -1.2 2.3 -0.1
v -1.1 2 -0.1
v -1.1 2.1 -0.1
v -1 2 -0.1
v -1 2.1 -0.1
v -0.9 2.1 -0.1
v -0.9 2.2 -0.1
v -0.8 2 -0.1
v -0.8 2.1 -0.1
v -0.6 1.9 -0.1
v -0.6 2 -0.1
v -0.6 2.1 -0.1
v -0.6 2.2 -0.1
v -0.3 1.3 -0.1
v -0.3 1.7 -0.1
v -0.2 1.4 -0.1
v -0.2 1.7 -0.1
v -0.2 1.8 -0.1
v -0.2 1.9 -0.1
v -0.2 2 -0.1
v -0.2 2.1 -0.1
v -0.2 2.2 -0.1
v -0.1 1.3 -0.1
v -0.1 1.4 -0.1
v -0.1 1.5 -0.1
v -0.1 1.7 -0.1
v -0.1 1.8 -0.1
v -0.1 1.9 -0.1
v 0 1.4 -0.1
v 0 1.5 -0.1
v 0 1.6 -0.1
v 0.1 1.5 -0.1
v 0.1 1.6 -0.1
v 0.1 1.8 -0.1
v 0.1 2 -0.1
v 0.1 2.1 -0.1
v 0.2 1.6 -0.1
v 0.2 1.7 -0.1
v 0.2 2 -0.1
v 0.2 2.1 -0.1
v 0.3 1.7 -0.1
v 0.3 1.8 -0.1
v 0.4 1.6 -0.1
v 0.4 1.8 -0.1
v 0.5 1.3 -0.1
v 0.5 1.4 -0.1
v 0.5 1.7 -0.1
v 0.5 1.8 -0.1
v 0.5 2.1 -0.1
v 0.5 2.2 -0.1
v 0.6 1.4 -0.1
v 0.6 1.6 -0.1
v 0.7 1.7 -0.1
v 0.7 1.8 -0.1
v 0.7 2 -0.1
v 0.7 2.1 -0.1
v 0.7 2.2 -0.1
v 0.8 1.3 -0.1
v 0.8 1.5 -0.1
v 0.8 2.1 -0.1
v 0.8 2.2 -0.1
v 0.9 1.5 -0.1
v 0.9 1.7 -0.1
v 0.9 2 -0.1
v 0.9 2.1 -0.1
v 1 1.6 -0.1
v 1 1.7 -0.1
v 1 2 -0.1
v 1.1 1.5 -0.1
v 1.1 1.6 -0.1
v 1.1 1.7 -0.1
v 1.1 1.9 -0.1
v 1.2 1.6 -0.1
v 1.2 1.7 -0.1
v 1.3 1.4 -0.1
v 1.3 1.5 -0.1
v 1.4 1.3 -0.1
v 1.4 1.4 -0.1
v 1.4 1.5 -0.1
v 1.4 1.6 -0.1
v 1.5 1.4 -0.1
v 1.5 1.5 -0.1
v 1.6 1.4 -0.1
v 1.6 1.9 -0.1
v 1.7 1.3 -0.1
v 1.7 2 -0.1
v -0.3 1.3 0.0999999
v -0.1 1.3 0.0999999
v 0.5 1.3 0.0999999
v 0.8 1.3 0.0999999
v 1.4 1.3 0.0999999
v 1.7 1.3 0.0999999
v -0.3 1.3 -0.1
v -0.1 1.3 -0.1
v 0.5 1.3 -0.1
v 0.8 1.3 -0.1
v 1.4 1.3 -0.1
v 1.7 1.3 -0.1
v -0.1 1.4 0.0999999
v 0 1.4 0.0999999
v 1.3 1.4 0.0999999
v 1.4 1.4 0.0999999
v -0.1 1.4 -0.1
v 0 1.4 -0.1
v 1.3 1.4 -0.1
v 1.4 1.4 -0.1
v 0 1.5 0.0999999
v 0.1 1.5 0.0999999
v 0.8 1.5 0.0999999
v 0.9 1.5 0.0999999
v 1.1 1.5 0.0999999
v 1.3 1.5 0.0999999
v 0 1.5 -0.1
v 0.1 1.5 -0.1
v 0.8 1.5 -0.1
v 0.9 1.5 -0.1
v 1.1 1.5 -0.1
v 1.3 1.5 -0.1
v 0.1 1.6 0.0999999
v 0.2 1.6 0.0999999
v 0.4 1.6 0.0999999
v 0.6 1.6 0.0999999
v 1 1.6 0.0999999
v 1.1 1.6 0.0999999
v 0.1 1.6 -0.1
v 0.2 1.6 -0.1
v 0.4 1.6 -0.1
v 0.6 1.6 -0.1
v 1 1.6 -0.1
v 1.1 1.6 -0.1
v 0.2 1.7 0.0999999
v 0.3 1.7 0.0999999
v 0.9 1.7 0.0999999
v 1 1.7 0.0999999
v 0.2 1.7 -0.1
v 0.3 1.7 -0.1
v 0.9 1.7 -0.1
v 1 1.7 -0.1
v 0.3 1.8 0.0999999
v 0.4 1.8 0.0999999
v 0.5 1.8 0.0999999
v 0.7 1.8 0.0999999
v 0.3 1.8 -0.1
v 0.4 1.8 -0.1
v 0.5 1.8 -0.1
v 0.7 1.8 -0.1
v -1.5 1.9 0.0999999
v -0.6 1.9 0.0999999
v -0.2 1.9 0.0999999
v -0.1 1.9 0.0999999
v 1.1 1.9 0.0999999
v 1.6 1.9 0.0999999
v -1.5 1.9 -0.1
v -0.6 1.9 -0.1
v -0.2 1.9 -0.1
v -0.1 1.9 -0.1
v 1.1 1.9 -0.1
v 1.6 1.9 -0.1
v -0.8 2.1 0.0999999
v -0.6 2.1 0.0999999
v -0.2 2.1 0.0999999
v 0.1 2.1 0.0999999
v -0.8 2.1 -0.1
v -0.6 2.1 -0.1
v -0.2 2.1 -0.1
v 0.1 2.1 -0.1
v 0.5 1.4 0.0999999
v 0.6 1.4 0.0999999
v 1.5 1.4 0.0999999
v 1.6 1.4 0.0999999
v 0.5 1.4 -0.1
v 0.6 1.4 -0.1
v 1.5 1.4 -0.1
v 1.6 1.4 -0.1
v 1.4 1.5 0.0999999
v 1.5 1.5 0.0999999
v 1.4 1.5 -0.1
v 1.5 1.5 -0.1
v 1.2 1.6 0.0999999
v 1.4 1.6 0.0999999
v 1.2 1.6 -0.1
v 1.4 1.6 -0.1
v -0.3 1.7 0.0999999
v -0.2 1.7 0.0999999
v 0.5 1.7 0.0999999
v 0.7 1.7 0.0999999
v 1.1 1.7 0.0999999
v 1.2 1.7 0.0999999
v -0.3 1.7 -0.1
v -0.2 1.7 -0.1
v 0.5 1.7 -0.1
v 0.7 1.7 -0.1
v 1.1 1.7 -0.1
v 1.2 1.7 -0.1
v -0.2 1.8 0.0999999
v -0.1 1.8 0.0999999
v -0.2 1.8 -0.1
v -0.1 1.8 -0.1
v -1.5 2 0.0999999
v -1.3 2 0.0999999
v -1.1 2 0.0999999
v -1 2 0.0999999
v -0.8 2 0.0999999
v -0.6 2 0.0999999
v -0.2 2 0.0999999
v 0.1 2 0.0999999
v 0.9 2 0.0999999
v 1 2 0.0999999
v 1.7 2 0.0999999
v -1.5 2 -0.1
v -1.3 2 -0.1
v -1.1 2 -0.1
v -1 2 -0.1
v -0.8 2 -0.1
v -0.6 2 -0.1
v -0.2 2 -0.1
v 0.1 2 -0.1
v 0.9 2 -0.1
v 1 2 -0.1
v 1.7 2 -0.1
v -1.2 2.1 0.0999999
v -1.1 2.1 0.0999999
v -1 2.1 0.0999999
v -0.9 2.1 0.0999999
v 0.5 2.1 0.0999999
v 0.7 2.1 0.0999999
v 0.8 2.1 0.0999999
v 0.9 2.1 0.0999999
v -1.2 2.1 -0.1
v -1.1 2.1 -0.1
v -1 2.1 -0.1
v -0.9 2.1 -0.1
v 0.5 2.1 -0.1
v 0.7 2.1 -0.1
v 0.8 2.1 -0.1
v 0.9 2.1 -0.1
v -0.9 2.2 0.0999999
v -0.6 2.2 0.0999999
v -0.2 2.2 0.0999999
v 0.5 2.2 0.0999999
v 0.7 2.2 0.0999999
v 0.8 2.2 0.0999999
v -0.9 2.2 -0.1
v -0.6 2.2 -0.1
v -0.2 2.2 -0.1
v 0.5 2.2 -0.1
v 0.7 2.2 -0.1
v 0.8 2.2 -0.1
v -1.3 2.3 0.0999999
v -1.2 2.3 0.0999999
v -1.3 2.3 -0.1
v -1.2 2.3 -0.1

# faces
f 3/1/1 2/1/1 1/1/1
f 4/1/1 2/1/1 3/1/1
f 7/2/1 6/2/1 5/2/1
f 8/2/1 6/2/1 7/2/1
f 11/1/1 10/1/1 9/1/1
f 12/1/1 10/1/1 11/1/1
f 15/1/1 14/1/1 13/1/1
f 16/1/1 14/1/1 15/1/1
f 19/1/1 18/1/1 17/1/1
f 20/1/1 18/1/1 19/1/1
f 23/1/1 22/1/1 21/1/1
f 24/1/1 22/1/1 23/1/1
f 27/1/1 26/1/1 25/1/1
f 28/1/1 26/1/1 27/1/1
f 31/1/1 30/1/1 29/1/1
f 32/1/1 30/1/1 31/1/1
f 35/3/1 34/3/1 33/3/1
f 36/3/1 34/3/1 35/3/1
f 39/3/1 38/3/1 37/3/1
f 40/3/1 38/3/1 39/3/1
f 43/3/1 42/3/1 41/3/1
f 44/3/1 42/3/1 43/3/1
f 47/1/1 46/1/1 45/1/1
f 48/1/1 46/1/1 47/1/1
f 51/1/1 50/1/1 49/1/1
f 52/1/1 50/1/1 51/1/1
f 55/3/1 54/3/1 53/3/1
f 56/3/1 54/3/1 55/3/1
f 59/3/1 58/3/1 57/3/1
f 60/3/1 58/3/1 59/3/1
f 63/3/1 62/3/1 61/3/1
f 64/3/1 62/3/1 63/3/1
f 67/3/1 66/3/1 65/3/1
f 68/3/1 66/3/1 67/3/1
f 71/3/1 70/3/1 69/3/1
f 72/3/1 70/3/1 71/3/1
f 73/2/2 74/2/2 75/2/2
f 75/2/2 74/2/2 76/2/2
f 77/2/2 78/2/2 79/2/2
f 79/2/2 78/2/2 80/2/2
f 81/1/2 82/1/2 83/1/2
f 83/1/2 82/1/2 84/1/2
f 85/1/2 86/1/2 87/1/2
f 87/1/2 86/1/2 88/1/2
f 89/1/2 90/1/2 91/1/2
f 91/1/2 90/1/2 92/1/2
f 93/1/2 94/1/2 95/1/2
f 95/1/2 94/1/2 96/1/2
f 97/1/2 98/1/2 99/1/2
f 99/1/2 98/1/2 100/1/2
f 101/1/2 102/1/2 103/1/2
f 103/1/2 102/1/2 104/1/2
f 105/3/2 106/3/2 107/3/2
f 107/3/2 106/3/2 108/3/2
f 109/1/2 110/1/2 111/1/2
f 111/1/2 110/1/2 112/1/2
f 113/3/2 114/3/2 115/3/2
f 115/3/2 114/3/2 116/3/2
f 117/1/2 118/1/2 119/1/2
f 119/1/2 118/1/2 120/1/2
f 121/3/2 122/3/2 123/3/2
f 123/3/2 122/3/2 124/3/2
f 125/1/2 126/1/2 127/1/2
f 127/1/2 126/1/2 128/1/2
f 129/3/2 130/3/2 131/3/2
f 131/3/2 130/3/2 132/3/2
f 133/3/2 134/3/2 135/3/2
f 135/3/2 134/3/2 136/3/2
f 137/3/2 138/3/2 139/3/2
f 139/3/2 138/3/2 140/3/2
f 141/3/2 142/3/2 143/3/2
f 143/3/2 142/3/2 144/3/2
f 145/3/2 146/3/2 147/3/2
f 147/3/2 146/3/2 148/3/2
f 151/1/3 150/1/3 149/1/3
f 153/2/3 152/2/3 151/2/3
f 154/2/3 152/2/3 153/2/3
f 155/1/3 151/1/3 149/1/3
f 155/2/3 153/2/3 151/2/3
f 156/2/3 153/2/3 155/2/3
f 157/1/3 155/1/3 149/1/3
f 159/1/3 158/1/3 157/1/3
f 161/1/3 159/1/3 157/1/3
f 161/1/3 160/1/3 159/1/3
f 161/1/3 157/1/3 149/1/3
f 162/1/3 160/1/3 161/1/3
f 163/1/3 161/1/3 149/1/3
f 164/1/3 161/1/3 163/1/3
f 165/1/3 160/1/3 162/1/3
f 166/1/3 160/1/3 165/1/3
f 169/1/3 168/1/3 167/1/3
f 170/1/3 168/1/3 169/1/3
f 172/3/3 164/3/3 163/3/3
f 173/3/3 164/3/3 172/3/3
f 174/3/3 166/3/3 165/3/3
f 175/3/3 166/3/3 174/3/3
f 176/1/3 169/1/3 167/1/3
f 177/2/3 170/2/3 169/2/3
f 177/1/3 169/1/3 176/1/3
f 178/2/3 170/2/3 177/2/3
f 179/1/3 171/1/3 170/1/3
f 179/2/3 170/2/3 178/2/3
f 180/1/3 171/1/3 179/1/3
f 181/1/3 173/1/3 172/1/3
f 182/1/3 178/1/3 177/1/3
f 183/2/3 180/2/3 179/2/3
f 183/1/3 178/1/3 182/1/3
f 183/2/3 179/2/3 178/2/3
f 184/2/3 180/2/3 183/2/3
f 185/1/3 184/1/3 183/1/3
f 186/2/3 180/2/3 184/2/3
f 186/1/3 184/1/3 185/1/3
f 187/1/3 181/1/3 180/1/3
f 187/2/3 180/2/3 186/2/3
f 188/1/3 173/1/3 181/1/3
f 188/1/3 181/1/3 187/1/3
f 189/1/3 175/1/3 174/1/3
f 190/1/3 189/1/3 188/1/3
f 190/1/3 188/1/3 187/1/3
f 190/1/3 187/1/3 186/1/3
f 191/1/3 189/1/3 190/1/3
f 192/1/3 189/1/3 191/1/3
f 193/1/3 175/1/3 189/1/3
f 193/1/3 189/1/3 192/1/3
f 194/1/3 192/1/3 191/1/3
f 195/1/3 192/1/3 194/1/3
f 197/1/3 192/1/3 195/1/3
f 200/3/3 197/3/3 196/3/3
f 201/1/3 192/1/3 197/1/3
f 201/3/3 197/3/3 200/3/3
f 202/1/3 175/1/3 193/1/3
f 202/2/3 193/2/3 192/2/3
f 203/1/3 175/1/3 202/1/3
f 204/3/3 199/3/3 198/3/3
f 205/3/3 200/3/3 196/3/3
f 206/3/3 200/3/3 205/3/3
f 206/3/3 205/3/3 204/3/3
f 207/1/3 192/1/3 201/1/3
f 208/2/3 202/2/3 192/2/3
f 208/1/3 192/1/3 207/1/3
f 209/2/3 202/2/3 208/2/3
f 211/3/3 206/3/3 204/3/3
f 211/3/3 204/3/3 198/3/3
f 212/3/3 206/3/3 211/3/3
f 213/1/3 210/1/3 209/1/3
f 213/1/3 209/1/3 208/1/3
f 213/1/3 207/1/3 206/1/3
f 213/1/3 208/1/3 207/1/3
f 214/1/3 210/1/3 213/1/3
f 215/3/3 206/3/3 212/3/3
f 216/1/3 213/1/3 206/1/3
f 216/3/3 206/3/3 215/3/3
f 217/1/3 213/1/3 216/1/3
f 218/1/3 213/1/3 217/1/3
f 220/1/3 217/1/3 216/1/3
f 221/1/3 217/1/3 220/1/3
f 223/3/3 220/3/3 219/3/3
f 223/3/3 221/3/3 220/3/3
f 224/3/3 221/3/3 223/3/3
f 225/3/3 221/3/3 224/3/3
f 226/3/3 223/3/3 222/3/3
f 226/3/3 224/3/3 223/3/3
f 227/3/3 224/3/3 226/3/3
f 229/3/3 226/3/3 222/3/3
f 231/3/3 229/3/3 228/3/3
f 232/3/3 226/3/3 229/3/3
f 232/3/3 229/3/3 231/3/3
f 233/3/3 226/3/3 232/3/3
f 234/3/3 231/3/3 230/3/3
f 234/3/3 232/3/3 231/3/3
f 235/3/3 232/3/3 234/3/3
f 236/3/3 234/3/3 230/3/3
f 237/3/3 221/3/3 225/3/3
f 238/3/3 236/3/3 230/3/3
f 238/3/3 237/3/3 236/3/3
f 239/3/3 221/3/3 237/3/3
f 239/3/3 237/3/3 238/3/3
f 240/1/4 241/1/4 242/1/4
f 242/2/4 243/2/4 244/2/4
f 244/2/4 243/2/4 245/2/4
f 240/1/4 242/1/4 246/1/4
f 242/2/4 244/2/4 246/2/4
f 246/2/4 244/2/4 247/2/4
f 240/1/4 246/1/4 248/1/4
f 248/1/4 249/1/4 250/1/4
f 248/1/4 250/1/4 252/1/4
f 250/1/4 251/1/4 252/1/4
f 240/1/4 248/1/4 252/1/4
f 252/1/4 251/1/4 253/1/4
f 240/1/4 252/1/4 254/1/4
f 254/1/4 252/1/4 255/1/4
f 253/1/4 251/1/4 256/1/4
f 256/1/4 251/1/4 257/1/4
f 258/1/4 259/1/4 260/1/4
f 260/1/4 259/1/4 261/1/4
f 254/3/4 255/3/4 263/3/4
f 263/3/4 255/3/4 264/3/4
f 256/3/4 257/3/4 265/3/4
f 265/3/4 257/3/4 266/3/4
f 258/1/4 260/1/4 267/1/4
f 260/2/4 261/2/4 268/2/4
f 267/1/4 260/1/4 268/1/4
f 268/2/4 261/2/4 269/2/4
f 261/1/4 262/1/4 270/1/4
f 269/2/4 261/2/4 270/2/4
f 270/1/4 262/1/4 271/1/4
f 263/1/4 264/1/4 272/1/4
f 268/1/4 269/1/4 273/1/4
f 270/2/4 271/2/4 274/2/4
f 273/1/4 269/1/4 274/1/4
f 269/2/4 270/2/4 274/2/4
f 274/2/4 271/2/4 275/2/4
f 274/1/4 275/1/4 276/1/4
f 275/2/4 271/2/4 277/2/4
f 276/1/4 275/1/4 277/1/4
f 271/1/4 272/1/4 278/1/4
f 277/2/4 271/2/4 278/2/4
f 272/1/4 264/1/4 279/1/4
f 278/1/4 272/1/4 279/1/4
f 265/1/4 266/1/4 280/1/4
f 279/1/4 280/1/4 281/1/4
f 278/1/4 279/1/4 281/1/4
f 277/1/4 278/1/4 281/1/4
f 281/1/4 280/1/4 282/1/4
f 282/1/4 280/1/4 283/1/4
f 280/1/4 266/1/4 284/1/4
f 283/1/4 280/1/4 284/1/4
f 282/1/4 283/1/4 285/1/4
f 285/1/4 283/1/4 286/1/4
f 286/1/4 283/1/4 288/1/4
f 287/3/4 288/3/4 291/3/4
f 288/1/4 283/1/4 292/1/4
f 291/3/4 288/3/4 292/3/4
f 284/1/4 266/1/4 293/1/4
f 283/2/4 284/2/4 293/2/4
f 293/1/4 266/1/4 294/1/4
f 289/3/4 290/3/4 295/3/4
f 287/3/4 291/3/4 296/3/4
f 296/3/4 291/3/4 297/3/4
f 295/3/4 296/3/4 297/3/4
f 292/1/4 283/1/4 298/1/4
f 283/2/4 293/2/4 299/2/4
f 298/1/4 283/1/4 299/1/4
f 299/2/4 293/2/4 300/2/4
f 295/3/4 297/3/4 302/3/4
f 289/3/4 295/3/4 302/3/4
f 302/3/4 297/3/4 303/3/4
f 300/1/4 301/1/4 304/1/4
f 299/1/4 300/1/4 304/1/4
f 297/1/4 298/1/4 304/1/4
f 298/1/4 299/1/4 304/1/4
f 304/1/4 301/1/4 305/1/4
f 303/3/4 297/3/4 306/3/4
f 297/1/4 304/1/4 307/1/4
f 306/3/4 297/3/4 307/3/4
f 307/1/4 304/1/4 308/1/4
f 308/1/4 304/1/4 309/1/4
f 307/1/4 308/1/4 311/1/4
f 311/1/4 308/1/4 312/1/4
f 310/3/4 311/3/4 314/3/4
f 311/3/4 312/3/4 314/3/4
f 314/3/4 312/3/4 315/3/4
f 315/3/4 312/3/4 316/3/4
f 313/3/4 314/3/4 317/3/4
f 314/3/4 315/3/4 317/3/4
f 317/3/4 315/3/4 318/3/4
f 313/3/4 317/3/4 320/3/4
f 319/3/4 320/3/4 322/3/4
f 320/3/4 317/3/4 323/3/4
f 322/3/4 320/3/4 323/3/4
f 323/3/4 317/3/4 324/3/4
f 321/3/4 322/3/4 325/3/4
f 322/3/4 323/3/4 325/3/4
f 325/3/4 323/3/4 326/3/4
f 321/3/4 325/3/4 327/3/4
f 316/3/4 312/3/4 328/3/4
f 321/3/4 327/3/4 329/3/4
f 327/3/4 328/3/4 329/3/4
f 328/3/4 312/3/4 330/3/4
f 329/3/4 328/3/4 330/3/4
f 337/1/5 332/1/5 331/1/5
f 338/1/5 332/1/5 337/1/5
f 339/3/5 334/3/5 333/3/5
f 340/3/5 334/3/5 339/3/5
f 341/3/5 336/3/5 335/3/5
f 342/3/5 336/3/5 341/3/5
f 347/1/5 344/1/5 343/1/5
f 348/1/5 344/1/5 347/1/5
f 349/3/5 346/3/5 345/3/5
f 350/3/5 346/3/5 349/3/5
f 357/1/5 352/1/5 351/1/5
f 358/1/5 352/1/5 357/1/5
f 359/3/5 354/3/5 353/3/5
f 360/3/5 354/3/5 359/3/5
f 361/3/5 356/3/5 355/3/5
f 362/3/5 356/3/5 361/3/5
f 369/1/5 364/1/5 363/1/5
f 370/1/5 364/1/5 369/1/5
f 371/3/5 366/3/5 365/3/5
f 372/3/5 366/3/5 371/3/5
f 373/3/5 368/3/5 367/3/5
f 374/3/5 368/3/5 373/3/5
f 379/1/5 376/1/5 375/1/5
f 380/1/5 376/1/5 379/1/5
f 381/1/5 378/1/5 377/1/5
f 382/1/5 378/1/5 381/1/5
f 387/1/5 384/1/5 383/1/5
f 388/1/5 384/1/5 387/1/5
f 389/1/5 386/1/5 385/1/5
f 390/1/5 386/1/5 389/1/5
f 397/1/5 392/1/5 391/1/5
f 398/3/5 393/3/5 392/3/5
f 398/1/5 392/1/5 397/1/5
f 399/1/5 394/1/5 393/1/5
f 399/3/5 393/3/5 398/3/5
f 400/1/5 394/1/5 399/1/5
f 401/3/5 396/3/5 395/3/5
f 402/3/5 396/3/5 401/3/5
f 407/1/5 404/1/5 403/1/5
f 408/3/5 405/3/5 404/3/5
f 408/1/5 404/1/5 407/1/5
f 409/1/5 406/1/5 405/1/5
f 409/3/5 405/3/5 408/3/5
f 410/1/5 406/1/5 409/1/5
f 411/3/6 412/3/6 415/3/6
f 415/3/6 412/3/6 416/3/6
f 413/3/6 414/3/6 417/3/6
f 417/3/6 414/3/6 418/3/6
f 419/3/6 420/3/6 421/3/6
f 421/3/6 420/3/6 422/3/6
f 423/3/6 424/3/6 425/3/6
f 425/3/6 424/3/6 426/3/6
f 427/1/6 428/1/6 433/1/6
f 433/1/6 428/1/6 434/1/6
f 429/3/6 430/3/6 435/3/6
f 435/3/6 430/3/6 436/3/6
f 431/3/6 432/3/6 437/3/6
f 437/3/6 432/3/6 438/3/6
f 439/1/6 440/1/6 441/1/6
f 441/1/6 440/1/6 442/1/6
f 443/1/6 444/1/6 454/1/6
f 454/1/6 444/1/6 455/1/6
f 445/1/6 446/1/6 456/1/6
f 456/1/6 446/1/6 457/1/6
f 447/1/6 448/1/6 458/1/6
f 448/3/6 449/3/6 459/3/6
f 458/1/6 448/1/6 459/1/6
f 449/1/6 450/1/6 460/1/6
f 459/3/6 449/3/6 460/3/6
f 460/1/6 450/1/6 461/1/6
f 451/1/6 452/1/6 462/1/6
f 452/3/6 453/3/6 463/3/6
f 462/1/6 452/1/6 463/1/6
f 463/3/6 453/3/6 464/3/6
f 465/2/6 466/2/6 473/2/6
f 473/2/6 466/2/6 474/2/6
f 467/1/6 468/1/6 475/1/6
f 475/1/6 468/1/6 476/1/6
f 469/2/6 470/2/6 477/2/6
f 477/2/6 470/2/6 478/2/6
f 471/1/6 472/1/6 479/1/6
f 479/1/6 472/1/6 480/1/6
f 481/1/6 482/1/6 487/1/6
f 482/3/6 483/3/6 488/3/6
f 487/1/6 482/1/6 488/1/6
f 483/1/6 484/1/6 489/1/6
f 488/3/6 483/3/6 489/3/6
f 489/1/6 484/1/6 490/1/6
f 485/1/6 486/1/6 491/1/6
f 491/1/6 486/1/6 492/1/6
f 493/2/6 494/2/6 495/2/6
f 495/2/6 494/2/6 496/2/6
